<?xml version="1.0" standalone="no"?><!DOCTYPE svg PUBLIC "-//W3C//DTD SVG 1.1//EN" "http://www.w3.org/Graphics/SVG/1.1/DTD/svg11.dtd"><svg t="1578037531273" class="icon" viewBox="0 0 1024 1024" version="1.1" xmlns="http://www.w3.org/2000/svg" p-id="858" xmlns:xlink="http://www.w3.org/1999/xlink" width="200" height="200"><defs><style type="text/css"></style></defs><path d="M616.390284 436.031515a649855.789035 649855.789035 0 0 0-56.409537 156.838225c45.01755 9.17759 87.462303 21.759976 128.332657 39.436757 23.219174 10.060789 38.079958 24.985572 44.044751 51.404742 19.916778 88.319902 42.239953 176.204604 63.10393 264.358106 9.17759 38.783957-9.43359 62.87353-54.719939 72.793519-44.262351 9.689589-64.627128-2.726397-74.943917-41.996753C648.185448 911.896586 628.42227 845.515859 611.06549 778.507934c-3.775996-14.527984-13.542385-19.519978-24.319973-22.937575a344.076417 344.076417 0 0 0-54.809539-12.671985c-56.396737-8.012791-56.601537-7.679991-80.511911 44.54395-16.025582 34.995161-31.500765 70.246322-51.532742 103.193485-22.796775 37.491158-41.075154 45.23515-83.199908 34.559962-64.563128-16.358382-121.907064-48.947146-179.6094-80.639911-10.444788-5.734394-21.132776-11.135988-32.063964-15.833582C63.226099 810.763898 47.405317 772.120741 65.517297 731.672786c15.027183-33.561563 55.859138-43.839951 94.553495-24.473573 32.102364 16.076782 64.140729 32.435164 97.087892 46.617548 30.310366 13.043185 36.428759 10.495988 47.359947-19.711978 36.467159-100.415888 72.959919-200.857377 96.883092-305.27966a89.228701 89.228701 0 0 0 2.303997-20.262378c0-13.209585-6.617593-16.179182-18.444779-11.059187-10.956788 4.761595-16.639981 13.939184-22.783975 23.372774-32.665564 50.188744-64.895928 100.671888-98.91829 149.926233-25.663971 37.119959-67.532725 39.577556-95.692693 7.283192C150.445202 558.079379 150.394002 534.924205 162.425989 513.433029c36.33916-64.921528 74.457517-128.703857 119.347067-188.415791 34.086362-45.33755 80.99831-63.999929 133.772651-72.499119 76.108715-12.326386 151.577431-17.369581 221.708554 25.203172 35.83996 21.759976 63.385529 52.556742 88.447901 84.915106 16.947181 21.862376 36.22396 26.111971 60.159933 20.582377 38.246357-8.83199 75.929516-20.953577 114.572673-27.03357 43.993551-6.924792 76.799915 34.559962 61.708731 75.519916-9.919989 27.04637-33.932762 37.324758-59.724733 43.148752-43.340752 9.791989-88.588701 14.079984-129.945456 29.132767-57.804736 21.081577-101.119888 8.396791-136.511848-39.526356-5.465594-7.500792-10.521588-15.270383-19.571178-28.428768z" p-id="859"></path><path d="M607.353494 114.009473m-114.009473 0a114.009473 114.009473 0 1 0 228.018946 0 114.009473 114.009473 0 1 0-228.018946 0Z" p-id="860"></path></svg>